<svg xmlns="http://www.w3.org/2000/svg" viewBox="0 0 500 700"><defs><pattern id="weave" width="16" height="16" patternUnits="userSpaceOnUse"><path d="M8 0L16 8 8 16 0 8Z" fill="none" stroke="#f5e9d3" stroke-width=".65"/><circle cx="8" cy="8" r="1.3" fill="#f5e9d3"/></pattern><g id="seal"><circle r="74" fill="#8d202b" stroke="#f5e9d3" stroke-width="2"/><circle r="66" fill="none" stroke="#f5e9d3" stroke-width="1"/><ellipse rx="18" ry="58" transform="rotate(0)" fill="none" stroke="#f5e9d3" stroke-width=".8"/><ellipse rx="18" ry="58" transform="rotate(15)" fill="none" stroke="#f5e9d3" stroke-width=".8"/><ellipse rx="18" ry="58" transform="rotate(30)" fill="none" stroke="#f5e9d3" stroke-width=".8"/><ellipse rx="18" ry="58" transform="rotate(45)" fill="none" stroke="#f5e9d3" stroke-width=".8"/><ellipse rx="18" ry="58" transform="rotate(60)" fill="none" stroke="#f5e9d3" stroke-width=".8"/><ellipse rx="18" ry="58" transform="rotate(75)" fill="none" stroke="#f5e9d3" stroke-width=".8"/><ellipse rx="18" ry="58" transform="rotate(90)" fill="none" stroke="#f5e9d3" stroke-width=".8"/><ellipse rx="18" ry="58" transform="rotate(105)" fill="none" stroke="#f5e9d3" stroke-width=".8"/><ellipse rx="18" ry="58" transform="rotate(120)" fill="none" stroke="#f5e9d3" stroke-width=".8"/><ellipse rx="18" ry="58" transform="rotate(135)" fill="none" stroke="#f5e9d3" stroke-width=".8"/><ellipse rx="18" ry="58" transform="rotate(150)" fill="none" stroke="#f5e9d3" stroke-width=".8"/><ellipse rx="18" ry="58" transform="rotate(165)" fill="none" stroke="#f5e9d3" stroke-width=".8"/><circle r="23" fill="#8d202b" stroke="#f5e9d3"/><path d="M0-17C-22-35-31-3-8 3C-33-5-32 28-5 15L-12 28H12L5 15C32 28 33-5 8 3C31-3 22-35 0-17" fill="#f5e9d3" transform="scale(.55)"/></g></defs><rect width="500" height="700" rx="24" fill="#f6f0e3"/><rect x="25" y="25" width="450" height="650" rx="15" fill="#8d202b"/><rect x="36" y="36" width="428" height="628" rx="10" fill="url(#weave)" stroke="#f5e9d3" stroke-width="2"/><rect x="46" y="46" width="408" height="608" rx="7" fill="none" stroke="#f5e9d3"/><use href="#seal" x="250" y="225"/><use href="#seal" x="250" y="475" transform="rotate(180 250 475)"/><path d="M62 350H438" stroke="#f5e9d3"/></svg>